<?xml version="1.0" standalone="no"?><!DOCTYPE svg PUBLIC "-//W3C//DTD SVG 1.1//EN" "http://www.w3.org/Graphics/SVG/1.1/DTD/svg11.dtd"><svg t="1658311301799" class="icon" viewBox="0 0 1024 1024" version="1.1" xmlns="http://www.w3.org/2000/svg" p-id="3317" xmlns:xlink="http://www.w3.org/1999/xlink" width="200" height="200"><defs><style type="text/css">@font-face { font-family: feedback-iconfont; src: url("//at.alicdn.com/t/font_1031158_u69w8yhxdu.woff2?t=1630033759944") format("woff2"), url("//at.alicdn.com/t/font_1031158_u69w8yhxdu.woff?t=1630033759944") format("woff"), url("//at.alicdn.com/t/font_1031158_u69w8yhxdu.ttf?t=1630033759944") format("truetype"); }
</style></defs><path d="M983.724393 312.706946c-25.781748-60.965405-62.683388-115.72887-109.682929-162.74241-47.031541-46.999541-101.807006-83.91918-162.74441-109.698929C648.17767 13.563868 581.116325 0.016 511.995 0.016c-69.107325 0-136.16467 13.545868-199.288054 40.249607-60.965405 25.779748-115.72887 62.701388-162.74441 109.698929-46.997541 47.013541-83.91718 101.777006-109.698929 162.74241C13.563868 375.83033 0.016 442.889675 0.016 511.995c0 69.119325 13.545868 136.18067 40.249607 199.302054 25.779748 60.937405 62.701388 115.71287 109.698929 162.712411 47.013541 47.031541 101.777006 83.93318 162.74441 109.712928 63.123384 26.687739 130.180729 40.249607 199.288054 40.249607 69.121325 0 136.18267-13.561868 199.302054-40.249607 60.937405-25.781748 115.71287-62.683388 162.74441-109.712928 46.999541-46.999541 83.901181-101.777006 109.682929-162.712411 26.687739-63.121384 40.249607-130.182729 40.249607-199.302054-0.002-69.105325-13.563868-136.16467-40.251607-199.288054z" fill="#ED5564" p-id="3318"></path><path d="M0.219998 526.37086c1.749983 64.027375 15.185852 126.182768 40.045609 184.928194 25.779748 60.937405 62.701388 115.71287 109.698929 162.712411 47.013541 47.031541 101.777006 83.93318 162.74441 109.712928 63.123384 26.687739 130.180729 40.249607 199.288054 40.249607 69.121325 0 136.18267-13.561868 199.302054-40.249607 60.937405-25.781748 115.71287-62.683388 162.74441-109.712928 46.999541-46.999541 83.901181-101.777006 109.682929-162.712411 24.875757-58.745426 38.311626-120.900819 40.061609-184.928194H0.219998z" fill="#E6E9ED" p-id="3319"></path><path d="M1021.536024 562.432507a520.414918 520.414918 0 0 0 2.437976-50.435507c0-19.031814-1.03199-37.90563-3.06197-56.577447-25.437752 3.921962-61.967395 9.031912-107.994945 14.107862-87.375147 9.639906-227.805775 21.139794-400.922085 21.139793-173.10231 0-313.548938-11.499888-400.906085-21.139793-46.04355-5.07795-82.559194-10.185901-107.994945-14.107862A519.20693 519.20693 0 0 0 0.016 511.995c0 16.935835 0.811992 33.74967 2.437976 50.435508 83.059189 12.499878 266.051402 34.871659 509.541024 34.871659s426.479835-22.369782 509.541024-34.86966z" fill="#434A54" p-id="3320"></path><path d="M618.677958 533.322792c0 58.917425-47.781533 106.666958-106.682958 106.666958-58.903425 0-106.666958-47.749534-106.666958-106.666958 0-58.905425 47.763534-106.652958 106.666958-106.652959 58.901425 0 106.682958 47.747534 106.682958 106.652959z" fill="#E6E9ED" p-id="3321"></path><path d="M511.995 341.330667c-105.870966 0-191.992125 86.137159-191.992125 191.992125s86.123159 191.974125 191.992125 191.974125 191.990125-86.121159 191.990125-191.974125c0-105.854966-86.119159-191.992125-191.990125-191.992125z m0 277.347291c-47.043541 0-85.325167-38.311626-85.325167-85.355166 0-47.045541 38.279626-85.325167 85.325167-85.325167 47.06154 0 85.307167 38.279626 85.307167 85.325167 0 47.043541-38.245627 85.355166-85.307167 85.355166z" fill="#434A54" p-id="3322"></path><path d="M983.724393 312.706946c-25.781748-60.965405-62.683388-115.72887-109.682929-162.74241-47.031541-46.999541-101.807006-83.91918-162.74441-109.698929C648.17767 13.563868 581.116325 0.016 511.995 0.016c-7.13993 0-14.249861 0.155998-21.327792 0.437996 61.577399 2.499976 121.322815 15.859845 177.946263 39.811611 60.995404 25.779748 115.74487 62.701388 162.74041 109.698929 46.999541 47.013541 83.93718 101.777006 109.712929 162.74241 26.717739 63.123384 40.217607 130.182729 40.217607 199.290054 0 69.119325-13.499868 136.18067-40.217607 199.302054-25.777748 60.937405-62.713388 115.71287-109.712929 162.712411-46.995541 47.031541-101.745006 83.93318-162.74041 109.712928-56.623447 23.937766-116.370864 37.311636-177.946263 39.811612 7.077931 0.281997 14.185861 0.437996 21.327792 0.437995 69.121325 0 136.18267-13.561868 199.302054-40.249607 60.937405-25.781748 115.71287-62.683388 162.74441-109.712928 46.999541-46.999541 83.901181-101.777006 109.682929-162.712411 26.687739-63.121384 40.249607-130.182729 40.249607-199.302054 0-69.107325-13.561868-136.16667-40.249607-199.290054z" fill="#FFFFFF" opacity=".2" p-id="3323"></path><path d="M40.265607 711.297054c25.779748 60.937405 62.701388 115.71287 109.698929 162.712411 47.013541 47.031541 101.777006 83.93318 162.74441 109.712928 63.123384 26.687739 130.180729 40.249607 199.288054 40.249607 7.13993 0 14.249861-0.155998 21.327792-0.437995-61.577399-2.499976-121.338815-15.875845-177.962262-39.811612-60.965405-25.781748-115.71287-62.683388-162.726411-109.712928-47.013541-46.999541-83.91918-101.777006-109.714929-162.712411-26.703739-63.119384-40.233607-130.180729-40.233607-199.302054 0-69.107325 13.529868-136.16667 40.231607-199.290054 25.795748-60.965405 62.701388-115.72887 109.714929-162.726411 47.013541-47.013541 101.761006-83.93518 162.726411-109.714928C411.983977 16.311841 471.745393 2.951971 533.322792 0.451996 526.244861 0.171998 519.13493 0.016 511.995 0.016c-69.107325 0-136.16467 13.545868-199.288054 40.249607-60.965405 25.779748-115.72887 62.701388-162.74441 109.714928-46.997541 46.997541-83.91718 101.761006-109.698929 162.726411C13.563868 375.83033 0.016 442.889675 0.016 511.995c0 69.121325 13.547868 136.18267 40.249607 199.302054z" opacity=".1" p-id="3324"></path></svg>